<?xml version="1.0" encoding="UTF-8" standalone="no"?><!-- Generator: Gravit.io --><svg xmlns="http://www.w3.org/2000/svg" xmlns:xlink="http://www.w3.org/1999/xlink" style="isolation:isolate" viewBox="0 0 500 500" width="500pt" height="500pt"><defs><clipPath id="_clipPath_nmad3bliPMPl5ZBXbNGCgSw1yZUOaHZU"><rect width="500" height="500"/></clipPath></defs><g clip-path="url(#_clipPath_nmad3bliPMPl5ZBXbNGCgSw1yZUOaHZU)"><rect width="500" height="500" style="fill:rgb(251,252,255)" fill-opacity="0"/><g style="opacity:0.63;"><g><rect x="59" y="53" width="142" height="142" transform="matrix(1,0,0,1,0,0)" fill="rgb(178,180,195)"/><path d=" M 154.388 163.938 C 157.248 168.608 160.97 172.041 167.551 172.041 C 173.08 172.041 176.612 169.278 176.612 165.459 C 176.612 160.884 172.983 159.263 166.897 156.601 L 163.562 155.17 C 153.933 151.068 147.536 145.929 147.536 135.065 C 147.536 125.057 155.161 117.439 167.078 117.439 C 175.562 117.439 181.661 120.391 186.056 128.123 L 175.665 134.794 C 173.378 130.692 170.91 129.076 167.078 129.076 C 163.169 129.076 160.692 131.555 160.692 134.794 C 160.692 138.797 163.172 140.418 168.897 142.897 L 172.233 144.326 C 183.57 149.188 189.971 154.145 189.971 165.288 C 189.971 177.302 180.534 183.883 167.86 183.883 C 155.468 183.883 147.461 177.978 143.544 170.238 L 154.388 163.938 Z  M 107.251 165.094 C 109.347 168.813 111.254 171.958 115.838 171.958 C 120.222 171.958 122.988 170.242 122.988 163.573 L 122.988 118.201 L 136.331 118.201 L 136.331 163.753 C 136.331 177.57 128.231 183.859 116.406 183.859 C 105.723 183.859 99.535 178.33 96.389 171.67 L 107.251 165.094 Z " fill="rgb(255,255,255)"/></g><g><path d=" M 464 195.018 C 464 183.491 449.565 172.567 427.434 165.793 C 432.541 143.236 430.271 125.29 420.269 119.544 C 417.964 118.197 415.269 117.558 412.325 117.558 L 412.325 125.467 C 413.956 125.467 415.269 125.787 416.368 126.39 C 421.192 129.156 423.284 139.69 421.653 153.238 C 421.263 156.572 420.624 160.083 419.844 163.665 C 412.892 161.963 405.302 160.65 397.322 159.799 C 392.534 153.238 387.569 147.279 382.568 142.066 C 394.13 131.319 404.983 125.432 412.36 125.432 L 412.36 117.523 C 412.36 117.523 412.36 117.523 412.36 117.523 C 402.607 117.523 389.839 124.474 376.929 136.533 C 364.019 124.545 351.251 117.665 341.498 117.665 L 341.498 125.574 C 348.839 125.574 359.728 131.426 371.29 142.101 C 366.325 147.315 361.359 153.238 356.642 159.799 C 348.627 160.65 341.037 161.963 334.085 163.701 C 333.269 160.154 332.667 156.714 332.241 153.415 C 330.574 139.867 332.631 129.333 337.419 126.531 C 338.483 125.893 339.866 125.609 341.498 125.609 L 341.498 117.7 C 341.498 117.7 341.498 117.7 341.498 117.7 C 338.519 117.7 335.823 118.339 333.482 119.686 C 323.516 125.432 321.282 143.343 326.424 165.829 C 304.364 172.638 290 183.526 290 195.018 C 290 206.544 304.435 217.468 326.566 224.242 C 321.459 246.799 323.729 264.745 333.731 270.491 C 336.036 271.839 338.731 272.477 341.711 272.477 C 351.464 272.477 364.232 265.526 377.142 253.467 C 390.052 265.455 402.82 272.335 412.573 272.335 C 415.552 272.335 418.248 271.697 420.589 270.349 C 430.555 264.604 432.789 246.693 427.647 224.207 C 449.636 217.433 464 206.509 464 195.018 Z  M 417.822 171.361 C 416.51 175.937 414.879 180.654 413.034 185.371 C 411.58 182.533 410.055 179.696 408.388 176.859 C 406.757 174.021 405.019 171.255 403.281 168.56 C 408.317 169.304 413.176 170.226 417.822 171.361 Z  M 401.578 209.134 C 398.812 213.922 395.975 218.461 393.031 222.682 C 387.746 223.143 382.391 223.391 377 223.391 C 371.645 223.391 366.289 223.143 361.04 222.717 C 358.096 218.497 355.223 213.992 352.457 209.24 C 349.762 204.594 347.314 199.877 345.08 195.124 C 347.279 190.372 349.762 185.619 352.422 180.973 C 355.188 176.185 358.025 171.645 360.969 167.425 C 366.254 166.964 371.609 166.715 377 166.715 C 382.355 166.715 387.711 166.964 392.96 167.389 C 395.904 171.61 398.777 176.114 401.543 180.866 C 404.238 185.513 406.686 190.23 408.92 194.982 C 406.686 199.735 404.238 204.487 401.578 209.134 Z  M 413.034 204.523 C 414.949 209.275 416.581 214.028 417.929 218.639 C 413.283 219.774 408.388 220.731 403.316 221.476 C 405.054 218.745 406.792 215.943 408.424 213.07 C 410.055 210.233 411.58 207.36 413.034 204.523 Z  M 377.071 242.366 C 373.773 238.961 370.474 235.166 367.211 231.017 C 370.403 231.158 373.666 231.265 376.965 231.265 C 380.298 231.265 383.597 231.194 386.824 231.017 C 383.632 235.166 380.334 238.961 377.071 242.366 Z  M 350.684 221.476 C 345.647 220.731 340.788 219.809 336.142 218.674 C 337.455 214.099 339.086 209.382 340.93 204.665 C 342.384 207.502 343.909 210.339 345.576 213.177 C 347.243 216.014 348.946 218.78 350.684 221.476 Z  M 376.894 147.67 C 380.192 151.074 383.49 154.869 386.753 159.019 C 383.561 158.877 380.298 158.771 377 158.771 C 373.666 158.771 370.368 158.842 367.14 159.019 C 370.332 154.869 373.631 151.074 376.894 147.67 Z  M 350.648 168.56 C 348.91 171.29 347.172 174.092 345.541 176.965 C 343.909 179.802 342.384 182.64 340.93 185.477 C 339.015 180.725 337.384 175.972 336.036 171.361 C 340.682 170.262 345.576 169.304 350.648 168.56 Z  M 318.551 212.964 C 305.996 207.608 297.874 200.586 297.874 195.018 C 297.874 189.449 305.996 182.392 318.551 177.072 C 321.601 175.759 324.935 174.589 328.375 173.489 C 330.397 180.441 333.057 187.676 336.355 195.089 C 333.092 202.466 330.468 209.666 328.481 216.582 C 324.97 215.482 321.636 214.276 318.551 212.964 Z  M 337.632 263.646 C 332.808 260.88 330.716 250.346 332.347 236.798 C 332.737 233.464 333.376 229.953 334.156 226.37 C 341.108 228.073 348.698 229.385 356.678 230.236 C 361.466 236.798 366.431 242.756 371.432 247.97 C 359.87 258.716 349.017 264.604 341.64 264.604 C 340.044 264.568 338.696 264.249 337.632 263.646 Z  M 421.759 236.62 C 423.426 250.169 421.369 260.702 416.581 263.504 C 415.517 264.142 414.134 264.426 412.502 264.426 C 405.161 264.426 394.272 258.574 382.71 247.899 C 387.675 242.685 392.641 236.762 397.358 230.201 C 405.373 229.35 412.963 228.037 419.915 226.299 C 420.731 229.882 421.369 233.322 421.759 236.62 Z  M 435.414 212.964 C 432.364 214.276 429.03 215.447 425.589 216.546 C 423.568 209.595 420.908 202.359 417.609 194.947 C 420.872 187.57 423.497 180.37 425.483 173.454 C 428.994 174.553 432.328 175.759 435.449 177.072 C 448.004 182.427 456.126 189.449 456.126 195.018 C 456.091 200.586 447.969 207.644 435.414 212.964 Z " fill="rgb(178,180,195)"/><path d=" M 341.462 117.665 L 341.462 117.665 L 341.462 117.665 L 341.462 117.665 Z " fill="rgb(97,218,251)"/><circle vector-effect="non-scaling-stroke" cx="376.9645332246229" cy="195.01773338768865" r="16.2083163473298" fill="rgb(178,180,195)"/><path d=" M 412.289 117.558 L 412.289 117.558 L 412.289 117.558 L 412.289 117.558 Z " fill="rgb(97,218,251)"/></g><g><path d=" M 193 307 L 193 307 L 193 307 L 121 332.676 L 131.982 427.876 L 193 461.672 L 193 461.672 L 193 461.672 L 254.018 427.876 L 265 332.676 L 193 307 Z " fill="rgb(178,180,195)"/><path d=" M 193 307 L 193 324.169 L 193 324.091 L 193 402.433 L 193 402.433 L 193 461.672 L 193 461.672 L 254.018 427.876 L 265 332.676 L 193 307 L 193 307 Z " fill="rgb(153,155,170)"/><path d=" M 193 324.091 L 147.99 425.015 L 147.99 425.015 L 164.772 425.015 L 164.772 425.015 L 173.821 402.433 L 212.025 402.433 L 221.073 425.015 L 221.073 425.015 L 237.855 425.015 L 237.855 425.015 L 193 324.091 L 193 324.091 L 193 324.091 L 193 324.091 L 193 324.091 Z  M 206.147 388.512 L 179.853 388.512 L 193 356.882 L 206.147 388.512 Z " fill="rgb(255,255,255)"/></g></g></g></svg>