<?xml version="1.0" encoding="UTF-8" standalone="no"?><!-- Generator: Gravit.io --><svg xmlns="http://www.w3.org/2000/svg" xmlns:xlink="http://www.w3.org/1999/xlink" style="isolation:isolate" viewBox="0 0 1920 922" width="1920pt" height="922pt"><defs><clipPath id="_clipPath_OkINZfCWrPOY5eMABCc5dHJMPyMnyobr"><rect width="1920" height="922"/></clipPath></defs><g clip-path="url(#_clipPath_OkINZfCWrPOY5eMABCc5dHJMPyMnyobr)"><rect width="1920" height="922" style="fill:rgb(251,252,255)" fill-opacity="0"/><g opacity="0.3"><path d=" M 2089.429 310.558 C 2074.194 319.947 2191.443 282.187 2038.579 350.644 C 1678.441 511.926 1960.252 595.655 1650.317 759.914 Q 1371.347 907.763 1427.369 1233 L 2052.584 1143.507 Q 2309.344 175.028 2089.429 310.558 Z " fill="rgb(84,244,217)"/></g><g opacity="0.3"><linearGradient id="_lgradient_3" x1="0" y1="0.5" x2="1" y2="0.5" gradientTransform="matrix(583.669,512.822,-661.392,752.763,9.639,-563.618)" gradientUnits="userSpaceOnUse"><stop offset="0%" stop-opacity="1" style="stop-color:rgb(84,244,217)"/><stop offset="77.82608695652173%" stop-opacity="1" style="stop-color:rgb(34,165,212)"/><stop offset="100%" stop-opacity="1" style="stop-color:rgb(2,116,209)"/></linearGradient><path d=" M 271.744 -282.685 C 554.75 -182.311 611.742 63.512 366 148.439 C 120.258 233.366 117.78 97.709 77 382.439 Q 20.468 777.152 -641 198.593 Q -191.356 -446.933 271.744 -282.685 Z " fill="url(#_lgradient_3)"/></g><g style="opacity:0.5;"><path d=" M -288.563 514.004 C 110.956 355.493 -214.215 201.834 167.852 200 Q 521.008 198.305 418.209 -417.339 L -266.383 -349.46 Q -458.142 581.285 -288.563 514.004 Z " fill="none" vector-effect="non-scaling-stroke" stroke-width="3" stroke="rgb(2,116,209)" stroke-linejoin="miter" stroke-linecap="square" stroke-miterlimit="3"/><path d=" M -279.563 559.464 C 119.956 400.954 -117.447 142.078 264.621 140.244 Q 617.776 138.549 427.209 -371.879 L -257.383 -304 Q -449.142 626.746 -279.563 559.464 Z " fill="none" vector-effect="non-scaling-stroke" stroke-width="3" stroke="rgb(84,244,217)" stroke-linejoin="miter" stroke-linecap="square" stroke-miterlimit="3"/></g><g style="opacity:0.5;"><path d=" M 1347.342 1167.709 C 1746.86 1009.199 1141.591 1045.636 1485 934 C 1828.409 822.364 1751.131 560.039 1893.798 438.705 C 2067.798 250.705 2185.408 502.178 2054.113 236.366 L 2263.798 1230.705 Q 1177.763 1234.991 1347.342 1167.709 Z " fill="none" vector-effect="non-scaling-stroke" stroke-width="3" stroke="rgb(2,116,209)" stroke-linejoin="miter" stroke-linecap="square" stroke-miterlimit="3"/><path d=" M 1164.798 1179.705 C 1425.784 1027.538 1323.275 647.059 1835.798 708.705 C 2348.32 770.351 2025.943 548.663 2063.113 281.827 L 2362.798 1227.705 Q 1007.191 1271.597 1164.798 1179.705 Z " fill="none" vector-effect="non-scaling-stroke" stroke-width="3" stroke="rgb(84,244,217)" stroke-linejoin="miter" stroke-linecap="square" stroke-miterlimit="3"/></g></g></svg>